<svg width="64" height="64" viewBox="0 0 64 64" fill="none" xmlns="http://www.w3.org/2000/svg">
<path d="M60.2687 32.0008C60.2687 14.327 46.7772 0 30.1342 0C13.491 0 0 14.3272 0 32.0008C0 49.6729 13.491 64 30.1342 64C46.777 64.0001 60.2687 49.6729 60.2687 32.0008Z" fill="#88928F"/>
<path d="M21.6612 28.6991L15.5197 33.675H21.9444L28.0859 28.6991H21.6612Z" fill="white"/>
<path d="M6.56585 28.6991L0.424377 33.675H4.04408L10.1856 28.6991H6.56585Z" fill="white"/>
<path d="M57.4618 28.6991L51.3204 33.675H57.7449L63.8864 28.6991H57.4618Z" fill="white"/>
<path d="M39.5618 28.6991L33.4203 33.675H39.8446L45.9861 28.6991H39.5618Z" fill="white"/>
<path d="M63.9996 27.6428L42.605 21.6786L35.1167 51.9711L56.5113 57.9352L63.9996 27.6428Z" fill="#F5ECE1"/>
<path d="M49.7375 23.6658L42.606 21.6777L40.7338 29.2511L47.8653 31.2391L49.7375 23.6658Z" fill="#505B66"/>
<path d="M64 27.6385L56.8686 25.6513L54.9973 33.2245L62.1286 35.2117L64 27.6385Z" fill="#505B66"/>
<path d="M54.9961 33.2285L47.8643 31.2404L45.9925 38.8124L53.1243 40.8005L54.9961 33.2285Z" fill="#505B66"/>
<path d="M45.9913 38.8136L38.8597 36.8255L36.9877 44.3985L44.1193 46.3866L45.9913 38.8136Z" fill="#505B66"/>
<path d="M60.2566 42.7845L53.1249 40.7972L51.2535 48.3707L58.3851 50.358L60.2566 42.7845Z" fill="#505B66"/>
<path d="M51.2533 48.3733L44.1214 46.3852L42.2493 53.9583L49.3812 55.9465L51.2533 48.3733Z" fill="#505B66"/>
<g opacity="0.4">
<path opacity="0.4" d="M63.9996 27.6428L42.605 21.6786L35.1167 51.9711L56.5113 57.9352L63.9996 27.6428Z" fill="#F5ECE1"/>
<path opacity="0.4" d="M49.7375 23.6658L42.606 21.6777L40.7338 29.2511L47.8653 31.2391L49.7375 23.6658Z" fill="#505B66"/>
<path opacity="0.4" d="M64 27.6385L56.8686 25.6513L54.9973 33.2245L62.1286 35.2117L64 27.6385Z" fill="#505B66"/>
<path opacity="0.4" d="M54.9961 33.2285L47.8643 31.2404L45.9925 38.8124L53.1243 40.8005L54.9961 33.2285Z" fill="#505B66"/>
<path opacity="0.4" d="M45.9913 38.8136L38.8597 36.8255L36.9877 44.3985L44.1193 46.3866L45.9913 38.8136Z" fill="#505B66"/>
<path opacity="0.4" d="M60.2566 42.7845L53.1249 40.7972L51.2535 48.3707L58.3851 50.358L60.2566 42.7845Z" fill="#505B66"/>
<path opacity="0.4" d="M51.2533 48.3733L44.1214 46.3852L42.2493 53.9583L49.3812 55.9465L51.2533 48.3733Z" fill="#505B66"/>
</g>
<path d="M35.1187 51.9726L39.4806 34.3256L52.3719 50.0608L35.1187 51.9726Z" fill="#505B66"/>
<path opacity="0.62" d="M35.1187 51.9726L39.4806 34.3256L52.3719 50.0608L35.1187 51.9726Z" fill="#505B66"/>
<path d="M59.8568 19.7683L24.1988 9.82794L16.7106 40.1202L52.3686 50.0606L59.8568 19.7683Z" fill="#F5ECE1"/>
<path d="M31.3302 11.8168L24.1986 9.82877L22.3265 17.4021L29.4581 19.3902L31.3302 11.8168Z" fill="#505B66"/>
<path d="M45.5938 15.7927L38.462 13.8046L36.5898 21.3781L43.7216 23.3662L45.5938 15.7927Z" fill="#505B66"/>
<path d="M59.8577 19.768L52.7258 17.7798L50.8536 25.3533L57.9856 27.3415L59.8577 19.768Z" fill="#505B66"/>
<path d="M36.5915 21.3765L29.4599 19.3884L27.5877 26.9618L34.7194 28.9499L36.5915 21.3765Z" fill="#505B66"/>
<path d="M50.8545 25.3495L43.7229 23.3622L41.8515 30.9357L48.9831 32.923L50.8545 25.3495Z" fill="#505B66"/>
<path d="M27.5877 26.9604L20.4561 24.9731L18.5847 32.5466L25.7163 34.5339L27.5877 26.9604Z" fill="#505B66"/>
<path d="M41.8538 30.9395L34.7216 28.9523L32.8504 36.5256L39.9826 38.5129L41.8538 30.9395Z" fill="#505B66"/>
<path d="M56.1126 34.9147L48.9811 32.9267L47.1092 40.4991L54.2407 42.4871L56.1126 34.9147Z" fill="#505B66"/>
<path d="M32.8449 36.5242L25.7133 34.5361L23.8413 42.1087L30.9729 44.0968L32.8449 36.5242Z" fill="#505B66"/>
<path d="M47.1115 40.4978L39.98 38.5098L38.1079 46.0829L45.2394 48.071L47.1115 40.4978Z" fill="#505B66"/>
<path d="M26.289 5.25514L20.548 3.65484C19.6065 3.39213 18.6432 3.99012 18.3962 4.98996C18.149 5.98918 18.712 7.01245 19.6532 7.275L20.5502 7.52508L8.89072 54.6949C9.96297 55.8265 11.1152 56.8723 12.337 57.8233L24.4974 8.62492L25.3946 8.87515C26.3359 9.13724 27.2995 8.53971 27.5464 7.54018C27.7935 6.54049 27.2307 5.51738 26.289 5.25514Z" fill="#EA7053"/>
<path d="M59.8568 19.7683L24.1988 9.82794L16.7106 40.1202L52.3686 50.0606L59.8568 19.7683Z" fill="#F5ECE1"/>
<path d="M31.3302 11.8168L24.1986 9.82877L22.3265 17.4021L29.4581 19.3902L31.3302 11.8168Z" fill="#505B66"/>
<path d="M45.5938 15.7927L38.462 13.8046L36.5898 21.3781L43.7216 23.3662L45.5938 15.7927Z" fill="#505B66"/>
<path d="M59.8577 19.768L52.7258 17.7798L50.8536 25.3533L57.9856 27.3415L59.8577 19.768Z" fill="#505B66"/>
<path d="M36.5915 21.3765L29.4599 19.3884L27.5877 26.9618L34.7194 28.9499L36.5915 21.3765Z" fill="#505B66"/>
<path d="M50.8545 25.3495L43.7229 23.3622L41.8515 30.9357L48.9831 32.923L50.8545 25.3495Z" fill="#505B66"/>
<path d="M27.5877 26.9604L20.4561 24.9731L18.5847 32.5466L25.7163 34.5339L27.5877 26.9604Z" fill="#505B66"/>
<path d="M41.8538 30.9395L34.7216 28.9523L32.8504 36.5256L39.9826 38.5129L41.8538 30.9395Z" fill="#505B66"/>
<path d="M56.1126 34.9147L48.9811 32.9267L47.1092 40.4991L54.2407 42.4871L56.1126 34.9147Z" fill="#505B66"/>
<path d="M32.8449 36.5242L25.7133 34.5361L23.8413 42.1087L30.9729 44.0968L32.8449 36.5242Z" fill="#505B66"/>
<path d="M45.2655 48.1115L38.1551 46.1207L39.9801 38.5117L47.1119 40.4995L45.2655 48.1115Z" fill="#505B66"/>
</svg>
