<svg width="204" height="144" viewBox="0 0 204 144" fill="none" xmlns="http://www.w3.org/2000/svg">
<path d="M119 78.6249L115.6 92.2249V105.825H84.9999V78.6249H119Z" fill="#555555"/>
<path d="M129.2 133.025C153 133.025 173.4 129.625 200.6 119.425C193.8 112.625 159.8 95.6249 132.6 95.6249C132.6 95.6249 131.269 100.356 129.2 102.425C125.8 105.825 125.8 105.825 119 105.825H74.7999C71.3999 102.425 72.5729 93.7337 74.7999 92.2249V85.4249C70.065 84.3199 66.4274 85.6455 62.2063 88.0548C57.9852 90.4642 54.3332 93.7413 50.3956 96.5927C46.458 99.444 42.0469 101.935 37.2078 102.4C28.5285 103.235 29.3853 103.892 20.6945 104.594C20.6193 113.047 17 133.025 33.9999 133.025H129.2Z" fill="#00509D"/>
<path d="M34 139.825C45.2666 139.825 54.3999 130.691 54.3999 119.425C54.3999 108.158 45.2666 99.0249 34 99.0249C22.7334 99.0249 13.6 108.158 13.6 119.425C13.6 130.691 22.7334 139.825 34 139.825Z" fill="#333333"/>
<path d="M3.39996 75.225H30.5999V102.425H3.39996V75.225Z" fill="#148EFF"/>
<path d="M33.9999 126.225C37.7555 126.225 40.7999 123.18 40.7999 119.425C40.7999 115.669 37.7555 112.625 33.9999 112.625C30.2444 112.625 27.2 115.669 27.2 119.425C27.2 123.18 30.2444 126.225 33.9999 126.225Z" fill="#DAE3E8"/>
<path d="M153 139.4C164.266 139.4 173.4 130.267 173.4 119C173.4 107.733 164.266 98.6 153 98.6C141.733 98.6 132.6 107.733 132.6 119C132.6 130.267 141.733 139.4 153 139.4Z" fill="#333333"/>
<path d="M153 125.8C156.755 125.8 159.8 122.755 159.8 119C159.8 115.244 156.755 112.2 153 112.2C149.244 112.2 146.2 115.244 146.2 119C146.2 122.755 149.244 125.8 153 125.8Z" fill="#DAE3E8"/>
<path d="M71.3999 119.425H119V133.025H71.3999V119.425Z" fill="#148EFF"/>
<path d="M176.8 133.025H200.6L183.6 122.825L176.8 133.025Z" fill="#148EFF"/>
<path d="M144.007 61.5866C143.161 73.5716 139.4 78.6249 139.4 78.6249H79.6662C72.2169 73.8824 66.5073 66.8513 63.3945 58.5874C60.2817 50.3235 59.9338 41.2727 62.4031 32.7942C64.8724 24.3158 70.0256 16.8672 77.0888 11.5669C84.1521 6.2667 92.7442 3.40092 101.575 3.3999C121.554 3.3999 135.838 17.0976 141.189 34.4249C141.879 36.6525 142.417 38.9244 142.8 41.2249C144.181 49.5039 144.385 56.2359 144.007 61.5866Z" fill="#D9D5CB"/>
<path d="M103.238 46.025C104.707 31.7709 114.341 18.6886 127.416 12.8886C125.185 10.9621 122.745 9.2919 120.141 7.9093C115.882 14.3136 108.699 18.72 101.706 22.3168C93.1761 26.7032 83.9749 30.8499 78.3496 38.6189C76.031 41.8043 74.4424 45.4612 73.6967 49.3298C72.9511 53.1984 73.0666 57.1838 74.0351 61.0027C75.0037 64.8217 76.8014 68.3804 79.3006 71.4261C81.7998 74.4718 84.9392 76.9296 88.4956 78.625H114.667C106.473 70.0498 102.018 57.8587 103.238 46.025V46.025Z" fill="#7E7C78"/>
<path d="M75.672 65.6302C73.7438 61.2808 72.9769 56.5056 73.4462 51.7712C73.9155 47.0368 75.605 42.5051 78.3495 38.6189C83.9748 30.8499 93.1761 26.7032 101.706 22.3168C108.699 18.72 115.882 14.3136 120.141 7.90929C114.417 4.90279 108.04 3.354 101.575 3.40005C92.7442 3.40106 84.1521 6.26685 77.0888 11.5671C70.0256 16.8673 64.8724 24.3159 62.4031 32.7944C59.9338 41.2729 60.2817 50.3236 63.3945 58.5875C66.5073 66.8515 72.217 73.8826 79.6662 78.625H88.4956C82.8618 75.8859 78.3362 71.2998 75.672 65.6302V65.6302Z" fill="#555555"/>
<path d="M98.5999 85.4249C98.5999 87.2284 99.3164 88.958 100.592 90.2333C101.867 91.5085 103.596 92.2249 105.4 92.2249H125.8C127.603 92.2249 129.333 92.9414 130.608 94.2166C131.883 95.4918 132.6 97.2215 132.6 99.0249C132.6 100.828 131.883 102.558 130.608 103.833C129.333 105.108 127.603 105.825 125.8 105.825H91.7999C89.9965 105.825 88.2669 105.108 86.9916 103.833C85.7164 102.558 84.9999 100.828 84.9999 99.0249V85.4249C84.9999 83.6215 85.7164 81.8919 86.9916 80.6166C88.2669 79.3414 89.9965 78.6249 91.7999 78.6249C93.6034 78.6249 95.333 79.3414 96.6083 80.6166C97.8835 81.8919 98.5999 83.6215 98.5999 85.4249Z" fill="#242423"/>
<path d="M144.007 61.5867C131.784 61.4592 103.156 60.877 95.1999 58.225C84.9999 54.825 88.3999 34.425 88.3999 34.425H141.189C141.879 36.6526 142.417 38.9245 142.8 41.225C144.181 49.504 144.385 56.236 144.007 61.5867Z" fill="#DDB283"/>
<path d="M105.4 58.2249C109.155 58.2249 112.2 55.1805 112.2 51.4249C112.2 47.6694 109.155 44.6249 105.4 44.6249C101.644 44.6249 98.5999 47.6694 98.5999 51.4249C98.5999 55.1805 101.644 58.2249 105.4 58.2249Z" fill="#F78663"/>
<path d="M142.8 41.225C142.417 38.9245 141.879 36.6526 141.189 34.425H128.424C131.389 41.7839 132.826 52.7425 132.737 61.3904C137.106 61.4979 141.04 61.5557 144.007 61.5867C144.385 56.236 144.181 49.504 142.8 41.225Z" fill="#4F4D4B"/>
<path d="M119 51.4249C118.098 51.4249 117.233 51.0667 116.596 50.4291C115.958 49.7915 115.6 48.9266 115.6 48.0249V44.6249C115.6 43.7232 115.958 42.8584 116.596 42.2207C117.233 41.5831 118.098 41.2249 119 41.2249C119.902 41.2249 120.766 41.5831 121.404 42.2207C122.042 42.8584 122.4 43.7232 122.4 44.6249V48.0249C122.4 48.9266 122.042 49.7915 121.404 50.4291C120.766 51.0667 119.902 51.4249 119 51.4249Z" fill="#683B11"/>
<path d="M34 109.225C31.9826 109.225 30.0106 109.823 28.3332 110.944C26.6558 112.065 25.3484 113.658 24.5764 115.522C23.8044 117.385 23.6024 119.436 23.996 121.415C24.3896 123.393 25.361 125.211 26.7875 126.637C28.214 128.064 30.0315 129.035 32.0101 129.429C33.9887 129.823 36.0396 129.621 37.9034 128.849C39.7672 128.077 41.3602 126.769 42.481 125.092C43.6018 123.414 44.2 121.442 44.2 119.425C44.1969 116.721 43.1213 114.128 41.2091 112.216C39.2969 110.304 36.7043 109.228 34 109.225ZM34 122.825C33.3275 122.825 32.6702 122.626 32.111 122.252C31.5519 121.878 31.1161 121.347 30.8588 120.726C30.6015 120.105 30.5341 119.421 30.6653 118.762C30.7965 118.102 31.1203 117.496 31.5958 117.021C32.0713 116.545 32.6771 116.221 33.3367 116.09C33.9962 115.959 34.6798 116.026 35.3011 116.284C35.9224 116.541 36.4534 116.977 36.827 117.536C37.2006 118.095 37.4 118.753 37.4 119.425C37.399 120.326 37.0404 121.191 36.403 121.828C35.7656 122.465 34.9014 122.824 34 122.825V122.825Z" fill="black"/>
<path d="M153 108.8C150.983 108.8 149.01 109.398 147.333 110.519C145.656 111.64 144.348 113.233 143.576 115.097C142.804 116.96 142.602 119.011 142.996 120.99C143.389 122.968 144.361 124.786 145.787 126.212C147.214 127.639 149.031 128.61 151.01 129.004C152.989 129.397 155.039 129.195 156.903 128.423C158.767 127.651 160.36 126.344 161.481 124.667C162.602 122.989 163.2 121.017 163.2 119C163.197 116.296 162.121 113.703 160.209 111.791C158.297 109.879 155.704 108.803 153 108.8V108.8ZM153 122.4C152.327 122.4 151.67 122.201 151.111 121.827C150.552 121.453 150.116 120.922 149.859 120.301C149.601 119.68 149.534 118.996 149.665 118.337C149.796 117.677 150.12 117.071 150.596 116.596C151.071 116.12 151.677 115.796 152.337 115.665C152.996 115.534 153.68 115.601 154.301 115.859C154.922 116.116 155.453 116.552 155.827 117.111C156.201 117.67 156.4 118.327 156.4 119C156.399 119.901 156.04 120.766 155.403 121.403C154.766 122.04 153.901 122.399 153 122.4Z" fill="black"/>
<path d="M202.349 130.109L194.331 125.298C196.752 124.464 199.228 123.571 201.795 122.608C202.327 122.408 202.801 122.078 203.173 121.648C203.545 121.217 203.803 120.7 203.923 120.144C204.043 119.588 204.022 119.011 203.862 118.465C203.701 117.92 203.406 117.423 203.004 117.021C197.877 111.893 181.1 102.933 162.896 97.3636C160.592 96.304 158.132 95.6228 155.612 95.3461C147.579 93.3554 140.113 92.3099 133.401 92.2326C132.446 91.1606 131.275 90.3027 129.965 89.7154C128.655 89.1281 127.236 88.8246 125.8 88.8249H119.954L121.654 82.0249H139.4C139.93 82.025 140.452 81.9012 140.926 81.6634C141.399 81.4257 141.811 81.0806 142.127 80.6556C142.484 80.1766 150.81 68.603 146.154 40.6661C144.312 29.6161 139.193 19.5181 131.739 12.2311C123.554 4.2296 113.123 0 101.575 0C92.0086 0.000991156 82.7007 3.10534 75.0489 8.84691C67.3971 14.5885 61.8144 22.6574 59.1391 31.8421C56.4638 41.0267 56.8402 50.8314 60.2118 59.7839C63.5835 68.7364 69.7684 76.3536 77.8379 81.4916C78.3839 81.8396 79.0178 82.0247 79.6654 82.0249H82.1839C81.7967 83.1167 81.5992 84.2666 81.6 85.4249V99.0249C81.5995 100.183 81.7973 101.333 82.1848 102.425H76.585C75.6852 100.187 76.1073 96.0657 76.9054 94.8939C77.3088 94.5758 77.6349 94.1703 77.8591 93.7081C78.0833 93.2458 78.1999 92.7387 78.2 92.2249V85.4249C78.2 84.6575 77.9404 83.9126 77.4634 83.3115C76.9863 82.7103 76.32 82.2882 75.5726 82.1138C69.4479 80.6854 64.719 82.7062 60.5225 85.1024C57.4795 86.8385 54.7646 88.9529 52.1394 90.9975C50.8601 91.9937 49.6519 92.9347 48.4019 93.8408C46.6221 95.1618 44.7253 96.3172 42.735 97.2926C39.9548 96.1899 36.9909 95.624 34 95.6249V75.225C34 74.3232 33.6418 73.4584 33.0041 72.8208C32.3665 72.1832 31.5017 71.825 30.6 71.825H3.4C2.49826 71.825 1.63346 72.1832 0.995836 72.8208C0.358213 73.4584 0 74.3232 0 75.225V102.425C0 103.327 0.358213 104.191 0.995836 104.829C1.63346 105.467 2.49826 105.825 3.4 105.825H14.4853C11.0926 110.683 9.63578 116.633 10.4003 122.51C11.1648 128.386 14.0954 133.765 18.6183 137.594C23.1412 141.423 28.9304 143.425 34.8523 143.209C40.7742 142.992 46.402 140.573 50.6336 136.425H129.2C131.738 136.425 134.246 136.382 136.684 136.303C139.252 138.731 142.328 140.556 145.69 141.644C149.052 142.733 152.614 143.058 156.118 142.596C159.621 142.134 162.977 140.896 165.942 138.973C168.906 137.05 171.65 134.511 173.5 131.5V131.479L174.5 133L175 134L176 135.5L176.8 136.425H200.6C201.343 136.425 202.067 136.181 202.658 135.731C203.25 135.281 203.678 134.649 203.877 133.932C204.075 133.216 204.033 132.454 203.757 131.764C203.481 131.073 202.987 130.492 202.349 130.109ZM135.997 99.1227C137.157 99.1822 138.335 99.2659 139.541 99.3845C137.846 100.553 136.308 101.935 134.966 103.496C135.632 102.133 135.985 100.639 135.997 99.1227ZM112.945 88.8249H105.4C104.499 88.8239 103.634 88.4654 102.997 87.828C102.359 87.1906 102.001 86.3264 102 85.4249C102 84.2666 101.803 83.1166 101.415 82.0249H114.645L112.945 88.8249ZM126.78 37.825C129.166 44.2948 130.344 51.1472 130.258 58.0422C117.829 57.7145 101.91 56.8777 96.2752 54.9992C92.8004 53.8415 91.6916 48.8665 91.3737 44.8974C91.2039 42.5422 91.2221 40.1773 91.4281 37.825H126.78ZM133.975 37.825H138.61C138.94 39.1259 139.223 40.4455 139.446 41.7839C140.392 47.2092 140.827 52.7115 140.743 58.2182C139.633 58.2114 138.394 58.1986 137.056 58.1799C137.147 51.2723 136.106 44.3963 133.975 37.825ZM64.175 44.2C64.1862 34.2843 68.1302 24.778 75.1416 17.7666C82.153 10.7552 91.6593 6.81124 101.575 6.8C106.28 6.75349 110.948 7.63918 115.31 9.40596C119.671 11.1727 123.639 13.7856 126.986 17.0939C130.994 21.0722 134.171 25.8077 136.333 31.025H88.3999C87.5951 31.025 86.8164 31.3105 86.2023 31.8308C85.5882 32.351 85.1786 33.0722 85.0463 33.8661C84.6493 36.2461 81.532 57.253 94.1247 61.4507C103.227 64.4848 131.44 64.9438 140.216 65.0126C139.496 70.2125 138.229 73.5313 137.42 75.225H80.6828C75.5913 71.8106 71.421 67.1928 68.5414 61.7809C65.6618 56.369 64.162 50.3303 64.175 44.2ZM88.3999 99.0249V85.4249C88.3999 84.5232 88.7582 83.6584 89.3958 83.0208C90.0334 82.3832 90.8982 82.0249 91.7999 82.0249C92.7017 82.0249 93.5665 82.3832 94.2041 83.0208C94.8417 83.6584 95.1999 84.5232 95.1999 85.4249C95.2031 88.1292 96.2787 90.7218 98.1909 92.6339C100.103 94.5461 102.696 95.6218 105.4 95.6249H115.589H115.602H115.622H125.8C126.702 95.6249 127.566 95.9832 128.204 96.6208C128.842 97.2584 129.2 98.1232 129.2 99.0249C129.2 99.9267 128.842 100.791 128.204 101.429C127.566 102.067 126.702 102.425 125.8 102.425H91.7999C90.8985 102.424 90.0343 102.065 89.3969 101.428C88.7595 100.791 88.401 99.9264 88.3999 99.0249ZM6.8 78.625H27.2V96.6199C25.2913 97.1893 23.4621 97.9974 21.7557 99.0249H6.8V78.625ZM17 119.425C17 116.063 17.997 112.776 19.865 109.98C21.733 107.185 24.388 105.006 27.4944 103.719C30.6007 102.432 34.0188 102.096 37.3165 102.752C40.6142 103.408 43.6433 105.027 46.0208 107.404C48.3983 109.782 50.0174 112.811 50.6733 116.108C51.3293 119.406 50.9926 122.824 49.7059 125.931C48.4192 129.037 46.2403 131.692 43.4447 133.56C40.649 135.428 37.3623 136.425 34 136.425C29.4929 136.42 25.1718 134.627 21.9848 131.44C18.7977 128.253 17.0051 123.932 17 119.425ZM74.8 129.625V122.825H115.6V129.625H74.8ZM122.4 129.625V119.425C122.4 118.523 122.042 117.658 121.404 117.021C120.766 116.383 119.902 116.025 119 116.025H71.4C70.4982 116.025 69.6334 116.383 68.9958 117.021C68.3582 117.658 68 118.523 68 119.425V129.625H55.499C57.7448 124.901 58.3686 119.568 57.2737 114.454C56.1788 109.339 53.4264 104.729 49.4436 101.338C50.4007 100.739 51.3799 100.08 52.3914 99.3471C53.737 98.3721 55.0489 97.3496 56.3176 96.3623C58.8676 94.3776 61.2726 92.5029 63.8932 91.0073C66.6259 89.4467 68.8976 88.4714 71.4 88.4369V90.9104C69.932 92.9929 69.4875 95.922 69.3561 97.3016C69.15 99.4665 69.0331 104.867 72.3957 108.228C72.7114 108.544 73.0861 108.795 73.4987 108.966C73.9112 109.137 74.3534 109.225 74.8 109.225H125.8C128.406 109.226 130.913 108.226 132.803 106.431C130.65 109.877 129.419 113.818 129.227 117.877C129.034 121.936 129.888 125.976 131.705 129.61C130.874 129.62 130.039 129.625 129.2 129.625H122.4ZM153 136C148.491 136 144.167 134.209 140.979 131.021C137.791 127.833 136 123.509 136 119C136 114.491 137.791 110.167 140.979 106.979C144.167 103.791 148.491 102 153 102C153.489 102 153.971 102.025 154.45 102.066C156.393 102.555 158.418 103.116 160.479 103.738C163.929 105.428 166.704 108.236 168.353 111.705C170.002 115.174 170.428 119.1 169.56 122.841C168.693 126.583 166.583 129.921 163.576 132.31C160.569 134.7 156.841 136 153 136ZM174.47 108.736C182.418 112.009 189.159 115.539 193.574 118.362C191.212 119.192 188.912 119.961 186.641 120.684L185.5 121L184 121.5C183.148 121.692 182 122 182 122L179.516 122.822C178.458 123.122 177.397 123.413 176.332 123.696C177.35 118.639 176.696 113.389 174.47 108.736ZM183.153 129.625L184.476 127.64L184.484 127.627L184.631 127.408L188.325 129.625H183.153Z" fill="black"/>
<path d="M119 51.4249C119.902 51.4249 120.766 51.0667 121.404 50.4291C122.042 49.7915 122.4 48.9266 122.4 48.0249V44.6249C122.4 43.7232 122.042 42.8584 121.404 42.2207C120.766 41.5831 119.902 41.2249 119 41.2249C118.098 41.2249 117.233 41.5831 116.596 42.2207C115.958 42.8584 115.6 43.7232 115.6 44.6249V48.0249C115.6 48.9266 115.958 49.7915 116.596 50.4291C117.233 51.0667 118.098 51.4249 119 51.4249Z" fill="black"/>
</svg>
