<svg id="Color" enable-background="new 0 0 24 24" height="512" viewBox="0 0 24 24" width="512" xmlns="http://www.w3.org/2000/svg"><path d="m15.3 12.3-.061-.002-4.342-.355c-.254-.021-.48-.169-.6-.394s-.118-.495.005-.718l5.792-10.444c.132-.239.384-.387.656-.387h1.875 2.625c.265 0 .511.14.646.369.135.228.139.511.011.743l-5.95 10.8c-.133.24-.385.388-.657.388z" fill="#d32f2f"/><path d="m19 0h-.375-1.875c-.272 0-.524.148-.656.386l-5.792 10.444c-.124.223-.126.493-.005.718.12.225.346.373.6.394l2.103.172z" fill="#b82929"/><path d="m13.81 10.466-5.913-10.095c-.134-.23-.381-.371-.647-.371h-4.5c-.265 0-.511.14-.645.369-.136.228-.14.51-.012.743l5.95 10.8c.134.242.387.388.657.388l.117-.009 4.462-.705c.245-.039.455-.196.561-.42.107-.224.095-.486-.03-.7z" fill="#f44336"/><path d="m4.458 0h-1.708c-.265 0-.511.14-.645.369-.136.228-.14.51-.012.743l5.95 10.8c.134.242.387.388.657.388l.117-.009.396-.063.994-1.994z" fill="#d43a2f"/><path d="m9.91 23.999c-.255 0-.51-.049-.748-.148-.498-.206-.893-.614-1.082-1.119l-.422-1.124c-.046-.123-.143-.22-.266-.266l-1.125-.422c-.504-.189-.912-.583-1.118-1.082s-.196-1.065.026-1.557l.496-1.093c.055-.12.055-.256 0-.375l-.496-1.094c-.223-.491-.232-1.058-.026-1.556s.614-.893 1.119-1.082l1.124-.422c.123-.046.22-.143.266-.266l.422-1.125c.189-.504.584-.913 1.082-1.119.496-.208 1.065-.198 1.557.026l1.094.496c.119.055.256.054.375.001v-.001l1.094-.497c.49-.224 1.059-.233 1.557-.026.498.206.893.614 1.082 1.119l.422 1.124c.046.123.143.22.266.266l1.125.422c.504.189.912.584 1.118 1.082s.196 1.065-.026 1.557l-.496 1.093c-.055.12-.055.256 0 .375l.496 1.094c.223.491.232 1.058.026 1.556s-.614.893-1.119 1.082l-1.124.422c-.123.046-.22.143-.266.266l-.422 1.125c-.189.504-.584.913-1.082 1.119-.497.206-1.066.197-1.557-.026l-1.094-.496c-.119-.055-.256-.054-.375 0l-1.094.497c-.256.116-.533.174-.809.174z" fill="#ffc107"/><path d="m13.25 21h-2.5c-.414 0-.75-.336-.75-.75v-1.375c0-1.172.897-2.125 2-2.125.272 0 .5-.286.5-.625s-.228-.625-.5-.625h-1.25c-.414 0-.75-.336-.75-.75s.336-.75.75-.75h1.25c1.103 0 2 .953 2 2.125s-.897 2.125-2 2.125c-.271 0-.5.286-.5.625v.625h1.75c.414 0 .75.336.75.75s-.336.75-.75.75z" fill="#ff8f00"/><path d="m12 18.25c-.271 0-.5.286-.5.625v.625h.5zm-2.091-8.25c-.255 0-.509.05-.747.149-.498.206-.893.614-1.082 1.119l-.422 1.125c-.046.123-.143.219-.266.266l-1.124.422c-.505.189-.913.584-1.119 1.082s-.196 1.065.026 1.556l.496 1.094c.055.119.055.256 0 .375l-.496 1.093c-.223.491-.232 1.059-.026 1.557s.614.893 1.118 1.082l1.125.422c.123.046.22.143.266.266l.422 1.124c.189.505.584.913 1.082 1.119.238.099.493.148.748.148.275 0 .553-.058.809-.174l1.094-.497c.06-.027.124-.04.187-.04v-2.288h-1.25c-.414 0-.75-.336-.75-.75v-1.375c0-1.172.897-2.125 2-2.125v-1.25h-1.25c-.414 0-.75-.336-.75-.75s.336-.75.75-.75h1.25v-3.287c-.064 0-.128-.014-.187-.041l-1.094-.496c-.256-.117-.533-.176-.81-.176z" fill="#dea806"/><path d="m12 16.75c-1.103 0-2 .953-2 2.125v1.375c0 .414.336.75.75.75h1.25v-1.5h-.5v-.625c0-.339.229-.625.5-.625zm0-2.75h-1.25c-.414 0-.75.336-.75.75s.336.75.75.75h1.25z" fill="#de7c00"/></svg>