<svg id="Color" enable-background="new 0 0 24 24" height="512" viewBox="0 0 24 24" width="512" xmlns="http://www.w3.org/2000/svg"><path d="m15.3 12.3-.061-.002-4.342-.355c-.254-.021-.48-.169-.6-.394s-.118-.495.005-.718l5.792-10.444c.132-.239.384-.387.656-.387h1.875 2.625c.265 0 .511.14.646.369.135.228.139.511.011.743l-5.95 10.8c-.133.24-.385.388-.657.388z" fill="#d32f2f"/><path d="m19 0h-.375-1.875c-.272 0-.524.148-.656.386l-5.792 10.444c-.124.223-.126.493-.005.718.12.225.346.373.6.394l2.103.172z" fill="#b82929"/><path d="m13.81 10.466-5.913-10.095c-.134-.23-.381-.371-.647-.371h-4.5c-.265 0-.511.14-.645.369-.136.228-.14.51-.012.743l5.95 10.8c.134.242.387.388.657.388l.117-.009 4.462-.705c.245-.039.455-.196.561-.42.107-.224.095-.486-.03-.7z" fill="#f44336"/><path d="m4.458 0h-1.708c-.265 0-.511.14-.645.369-.136.228-.14.51-.012.743l5.95 10.8c.134.242.387.388.657.388l.117-.009.396-.063.994-1.994z" fill="#d43a2f"/><path d="m12 24c-3.86 0-7-3.14-7-7s3.14-7 7-7 7 3.14 7 7-3.14 7-7 7z" fill="#ffc107"/><path d="m12.417 21h-1.667c-.414 0-.75-.336-.75-.75s.336-.75.75-.75h1.667c.021 0 .083-.059.083-.166v-3.667c0-.107-.063-.167-.083-.167h-1.667c-.414 0-.75-.336-.75-.75s.336-.75.75-.75h1.667c.873 0 1.583.748 1.583 1.667v3.667c0 .918-.71 1.666-1.583 1.666z" fill="#ff8f00"/><path d="m13.25 18.25h-2.5c-.414 0-.75-.336-.75-.75s.336-.75.75-.75h2.5c.414 0 .75.336.75.75s-.336.75-.75.75z" fill="#ff8f00"/><path d="m12 10c-3.86 0-7 3.14-7 7s3.14 7 7 7v-3h-1.25c-.414 0-.75-.336-.75-.75s.336-.75.75-.75h1.25v-1.25h-1.25c-.414 0-.75-.336-.75-.75s.336-.75.75-.75h1.25v-1.25h-1.25c-.414 0-.75-.336-.75-.75s.336-.75.75-.75h1.25z" fill="#dea806"/><g fill="#de7c00"><path d="m12 19.5h-1.25c-.414 0-.75.336-.75.75s.336.75.75.75h1.25zm0-5.5h-1.25c-.414 0-.75.336-.75.75s.336.75.75.75h1.25z"/><path d="m12 16.75h-1.25c-.414 0-.75.336-.75.75s.336.75.75.75h1.25z"/></g></svg>