<svg width="427" height="161" viewBox="0 0 427 161" fill="none" xmlns="http://www.w3.org/2000/svg">
<path d="M390.842 10.4381H380.713V54.0357H390.842V10.4381Z" fill="#526BC2"/>
<path d="M400.644 47.7971L296.2 20.5515L167.931 25.6061L103.797 60.9908L15.8924 84.5366C6.51808 87.0475 0 95.5312 0 105.221V142.713L401.866 135.577C415.819 135.329 427 123.966 427 110.034V81.8679C427 65.8486 416.17 51.8476 400.644 47.7971Z" fill="#5D79DE"/>
<path d="M341.352 14.4666H331.223V32.2394H341.352V14.4666Z" fill="#526BC2"/>
<path d="M324.421 20.907L418.283 10.0485L417.116 -7.85464e-05L323.255 10.8585L324.421 20.907Z" fill="#526BC2"/>
<path d="M0 107.75V142.713L401.866 135.577C415.819 135.329 427 123.966 427 110.034V107.749H0V107.75Z" fill="#526BC2"/>
<path d="M140.927 61.834C145.297 61.834 258.287 53.2044 289.141 50.8414C293.508 50.5067 296.863 46.8738 296.863 42.5016V36.9283C296.863 32.2234 292.978 28.4446 288.268 28.5655L173.839 31.504L140.927 61.834Z" fill="#D5D6DB"/>
<path d="M140.927 61.8341L173.838 31.5041L207.133 30.6488C217.307 30.387 219.061 45.0534 209.11 47.1906L140.927 61.8341Z" fill="#EBF0F3"/>
<path d="M84.4438 161C107.461 161 126.119 142.372 126.119 119.393C126.119 96.4136 107.461 77.7853 84.4438 77.7853C61.4271 77.7853 42.7683 96.4136 42.7683 119.393C42.7683 142.372 61.4271 161 84.4438 161Z" fill="#2F4859"/>
<path d="M84.4439 146.425C99.3976 146.425 111.52 134.322 111.52 119.393C111.52 104.463 99.3976 92.3609 84.4439 92.3609C69.4901 92.3609 57.3677 104.463 57.3677 119.393C57.3677 134.322 69.4901 146.425 84.4439 146.425Z" fill="#D5D6DB"/>
<path d="M84.4439 131.052C90.8935 131.052 96.122 125.832 96.122 119.393C96.122 112.954 90.8935 107.734 84.4439 107.734C77.9942 107.734 72.7657 112.954 72.7657 119.393C72.7657 125.832 77.9942 131.052 84.4439 131.052Z" fill="#3A556A"/>
<path d="M370.764 161C393.781 161 412.44 142.372 412.44 119.393C412.44 96.4136 393.781 77.7853 370.764 77.7853C347.747 77.7853 329.089 96.4136 329.089 119.393C329.089 142.372 347.747 161 370.764 161Z" fill="#2F4859"/>
<path d="M370.764 146.425C385.718 146.425 397.84 134.322 397.84 119.393C397.84 104.463 385.718 92.3609 370.764 92.3609C355.81 92.3609 343.688 104.463 343.688 119.393C343.688 134.322 355.81 146.425 370.764 146.425Z" fill="#D5D6DB"/>
<path d="M370.764 131.052C377.214 131.052 382.442 125.832 382.442 119.393C382.442 112.954 377.214 107.734 370.764 107.734C364.315 107.734 359.086 112.954 359.086 119.393C359.086 125.832 364.315 131.052 370.764 131.052Z" fill="#3A556A"/>
<path d="M296.872 57.152H267.003V66.505H296.872V57.152Z" fill="#64798A"/>
<path d="M296.872 57.152H267.003V60.8098H296.872V57.152Z" fill="#3A556A"/>
<path d="M1.16492 107.73H21.3377V84.2658C4.29836 91.6954 1.16492 107.73 1.16492 107.73Z" fill="#D5D6DB"/>
<path d="M414.114 77.7823C410.511 77.7823 407.591 80.6978 407.591 84.2947V94.437C407.591 98.034 410.511 100.949 414.114 100.949H427V77.7813H414.114V77.7823Z" fill="#FCD462"/>
</svg>
