<svg width="427" height="161" viewBox="0 0 427 161" fill="none" xmlns="http://www.w3.org/2000/svg">
<g clip-path="url(#clip0)">
<path d="M390.537 10.4381H380.416V54.0357H390.537V10.4381Z" fill="#D15241"/>
<path d="M400.332 47.7971L295.969 20.5515L167.8 25.6061L103.716 60.9908L15.88 84.5366C6.513 87.0475 0 95.5312 0 105.221V142.713L401.553 135.577C415.495 135.329 426.667 123.966 426.667 110.034V81.8679C426.667 65.8486 415.845 51.8476 400.332 47.7971Z" fill="#E56353"/>
<path d="M341.086 14.4666H330.965V32.2394H341.086V14.4666Z" fill="#D15241"/>
<path d="M324.168 20.907L417.957 10.0485L416.791 -8.40033e-05L323.003 10.8585L324.168 20.907Z" fill="#D15241"/>
<path d="M0 107.75V142.713L401.553 135.577C415.495 135.329 426.667 123.966 426.667 110.034V107.749H0V107.75Z" fill="#D15241"/>
<path d="M140.817 61.834C145.184 61.834 258.086 53.2044 288.916 50.8414C293.279 50.5067 296.631 46.8738 296.631 42.5016V36.9283C296.631 32.2234 292.75 28.4446 288.043 28.5655L173.703 31.504L140.817 61.834Z" fill="#D5D6DB"/>
<path d="M140.817 61.8341L173.702 31.5041L206.971 30.6488C217.138 30.387 218.89 45.0534 208.947 47.1906L140.817 61.8341Z" fill="#EBF0F3"/>
<path d="M84.378 161C107.377 161 126.021 142.372 126.021 119.393C126.021 96.4136 107.377 77.7853 84.378 77.7853C61.3792 77.7853 42.735 96.4136 42.735 119.393C42.735 142.372 61.3792 161 84.378 161Z" fill="#2F4859"/>
<path d="M84.378 146.424C99.3201 146.424 111.433 134.322 111.433 119.393C111.433 104.463 99.3201 92.3607 84.378 92.3607C69.4359 92.3607 57.323 104.463 57.323 119.393C57.323 134.322 69.4359 146.424 84.378 146.424Z" fill="#D5D6DB"/>
<path d="M84.378 131.052C90.8226 131.052 96.047 125.832 96.047 119.393C96.047 112.954 90.8226 107.734 84.378 107.734C77.9334 107.734 72.709 112.954 72.709 119.393C72.709 125.832 77.9334 131.052 84.378 131.052Z" fill="#3A556A"/>
<path d="M370.475 161C393.474 161 412.118 142.372 412.118 119.393C412.118 96.4136 393.474 77.7853 370.475 77.7853C347.476 77.7853 328.832 96.4136 328.832 119.393C328.832 142.372 347.476 161 370.475 161Z" fill="#2F4859"/>
<path d="M370.475 146.424C385.417 146.424 397.53 134.322 397.53 119.393C397.53 104.463 385.417 92.3607 370.475 92.3607C355.533 92.3607 343.42 104.463 343.42 119.393C343.42 134.322 355.533 146.424 370.475 146.424Z" fill="#D5D6DB"/>
<path d="M370.475 131.052C376.92 131.052 382.144 125.832 382.144 119.393C382.144 112.954 376.92 107.734 370.475 107.734C364.03 107.734 358.806 112.954 358.806 119.393C358.806 125.832 364.03 131.052 370.475 131.052Z" fill="#3A556A"/>
<path d="M296.64 57.152H266.795V66.505H296.64V57.152Z" fill="#64798A"/>
<path d="M296.64 57.152H266.795V60.8098H296.64V57.152Z" fill="#3A556A"/>
<path d="M1.16394 107.73H21.3209V84.2658C4.29494 91.6954 1.16394 107.73 1.16394 107.73Z" fill="#D5D6DB"/>
<path d="M413.791 77.7823C410.191 77.7823 407.273 80.6978 407.273 84.2947V94.437C407.273 98.0339 410.191 100.949 413.791 100.949H426.667V77.7813H413.791V77.7823Z" fill="#FCD462"/>
</g>
<defs>
<clipPath id="clip0">
<rect width="426.667" height="161" fill="white"/>
</clipPath>
</defs>
</svg>
