<svg width="800" height="200" viewBox="0 0 800 200" fill="none" xmlns="http://www.w3.org/2000/svg">
<path d="M546.193 42.6188H537.843V78.6176H546.193V42.6188Z" fill="#353435"/>
<path d="M554.274 73.4664L468.174 50.9695L362.435 55.1432L309.566 84.3605L237.101 103.802C229.373 105.876 224 112.881 224 120.882V151.839L555.281 145.947C566.783 145.742 576 136.359 576 124.856V101.599C576 88.3717 567.072 76.8109 554.274 73.4664Z" fill="#525252"/>
<path d="M505.396 45.9452H497.046V60.6203H505.396V45.9452Z" fill="#353435"/>
<path d="M491.439 51.2631L568.814 42.2971L567.853 34L490.477 42.9659L491.439 51.2631Z" fill="#353435"/>
<path d="M224 122.97V151.839L555.281 145.947C566.783 145.742 576 136.359 576 124.856V122.969H224V122.97Z" fill="#353435"/>
<path d="M340.174 85.0567C343.777 85.0567 436.921 77.9312 462.356 75.98C465.955 75.7037 468.72 72.704 468.72 69.0938V64.4919C468.72 60.607 465.519 57.4869 461.635 57.5867L367.305 60.013L340.174 85.0567Z" fill="#D5D6DB"/>
<path d="M340.174 85.0568L367.304 60.0131L394.751 59.3069C403.139 59.0908 404.584 71.201 396.381 72.9656L340.174 85.0568Z" fill="#EBF0F3"/>
<path d="M293.612 166.939C312.586 166.939 327.967 151.557 327.967 132.583C327.967 113.609 312.586 98.2279 293.612 98.2279C274.638 98.2279 259.256 113.609 259.256 132.583C259.256 151.557 274.638 166.939 293.612 166.939Z" fill="#2F4859"/>
<path d="M293.612 154.904C305.939 154.904 315.932 144.91 315.932 132.583C315.932 120.256 305.939 110.263 293.612 110.263C281.285 110.263 271.291 120.256 271.291 132.583C271.291 144.91 281.285 154.904 293.612 154.904Z" fill="#D5D6DB"/>
<path d="M293.612 142.21C298.929 142.21 303.239 137.9 303.239 132.583C303.239 127.267 298.929 122.956 293.612 122.956C288.295 122.956 283.985 127.267 283.985 132.583C283.985 137.9 288.295 142.21 293.612 142.21Z" fill="#3A556A"/>
<path d="M529.642 166.939C548.616 166.939 563.997 151.557 563.997 132.583C563.997 113.609 548.616 98.2279 529.642 98.2279C510.668 98.2279 495.286 113.609 495.286 132.583C495.286 151.557 510.668 166.939 529.642 166.939Z" fill="#2F4859"/>
<path d="M529.642 154.904C541.969 154.904 551.962 144.91 551.962 132.583C551.962 120.256 541.969 110.263 529.642 110.263C517.314 110.263 507.321 120.256 507.321 132.583C507.321 144.91 517.314 154.904 529.642 154.904Z" fill="#D5D6DB"/>
<path d="M529.642 142.21C534.958 142.21 539.268 137.9 539.268 132.583C539.268 127.267 534.958 122.956 529.642 122.956C524.325 122.956 520.015 127.267 520.015 132.583C520.015 137.9 524.325 142.21 529.642 142.21Z" fill="#3A556A"/>
<path d="M468.728 81.1908H444.106V88.9136H468.728V81.1908Z" fill="#64798A"/>
<path d="M468.728 81.1908H444.106V84.2111H468.728V81.1908Z" fill="#3A556A"/>
<path d="M224.96 122.953H241.59V103.579C227.543 109.714 224.96 122.953 224.96 122.953Z" fill="#D5D6DB"/>
<path d="M565.377 98.2254C562.407 98.2254 560 100.633 560 103.603V111.977C560 114.947 562.407 117.355 565.377 117.355H576V98.2246H565.377V98.2254Z" fill="#FCD462"/>
</svg>
