<svg width="800" height="200" viewBox="0 0 800 200" fill="none" xmlns="http://www.w3.org/2000/svg">
<path d="M417 106.625L413.6 120.225V133.825H383V106.625H417Z" fill="#555555"/>
<path d="M427.2 161.025C451 161.025 471.4 157.625 498.6 147.425C491.8 140.625 457.8 123.625 430.6 123.625C430.6 123.625 429.269 128.356 427.2 130.425C423.8 133.825 423.8 133.825 417 133.825H372.8C369.4 130.425 370.573 121.734 372.8 120.225V113.425C368.065 112.32 364.427 113.646 360.206 116.055C355.985 118.464 352.333 121.741 348.396 124.593C344.458 127.444 340.047 129.935 335.208 130.4C326.529 131.235 327.385 131.892 318.695 132.594C318.619 141.047 315 161.025 332 161.025H427.2Z" fill="#00509D"/>
<path d="M332 167.825C343.267 167.825 352.4 158.691 352.4 147.425C352.4 136.158 343.267 127.025 332 127.025C320.733 127.025 311.6 136.158 311.6 147.425C311.6 158.691 320.733 167.825 332 167.825Z" fill="#333333"/>
<path d="M301.4 103.225H328.6V130.425H301.4V103.225Z" fill="#148EFF"/>
<path d="M332 154.225C335.756 154.225 338.8 151.181 338.8 147.425C338.8 143.669 335.756 140.625 332 140.625C328.244 140.625 325.2 143.669 325.2 147.425C325.2 151.181 328.244 154.225 332 154.225Z" fill="#DAE3E8"/>
<path d="M451 167.4C462.267 167.4 471.4 158.267 471.4 147C471.4 135.733 462.267 126.6 451 126.6C439.733 126.6 430.6 135.733 430.6 147C430.6 158.267 439.733 167.4 451 167.4Z" fill="#333333"/>
<path d="M451 153.8C454.755 153.8 457.8 150.755 457.8 147C457.8 143.244 454.755 140.2 451 140.2C447.244 140.2 444.2 143.244 444.2 147C444.2 150.755 447.244 153.8 451 153.8Z" fill="#DAE3E8"/>
<path d="M369.4 147.425H417V161.025H369.4V147.425Z" fill="#148EFF"/>
<path d="M474.8 161.025H498.6L481.6 150.825L474.8 161.025Z" fill="#148EFF"/>
<path d="M442.007 89.5866C441.161 101.572 437.4 106.625 437.4 106.625H377.666C370.217 101.882 364.507 94.8513 361.394 86.5874C358.282 78.3235 357.934 69.2727 360.403 60.7942C362.872 52.3158 368.026 44.8672 375.089 39.5669C382.152 34.2667 390.744 31.4009 399.575 31.3999C419.554 31.3999 433.838 45.0976 439.189 62.4249C439.879 64.6525 440.417 66.9244 440.8 69.2249C442.181 77.5039 442.385 84.2359 442.007 89.5866Z" fill="#D9D5CB"/>
<path d="M401.238 74.025C402.707 59.7709 412.341 46.6886 425.416 40.8886C423.185 38.9621 420.745 37.2919 418.141 35.9093C413.882 42.3136 406.699 46.72 399.706 50.3168C391.176 54.7032 381.975 58.8499 376.35 66.6189C374.031 69.8043 372.442 73.4612 371.697 77.3298C370.951 81.1984 371.067 85.1838 372.035 89.0027C373.004 92.8217 374.801 96.3804 377.301 99.4261C379.8 102.472 382.939 104.93 386.496 106.625H412.667C404.473 98.0498 400.018 85.8587 401.238 74.025V74.025Z" fill="#7E7C78"/>
<path d="M373.672 93.6302C371.744 89.2808 370.977 84.5056 371.446 79.7712C371.916 75.0368 373.605 70.5051 376.35 66.6189C381.975 58.8499 391.176 54.7032 399.706 50.3168C406.699 46.72 413.882 42.3136 418.142 35.9093C412.417 32.9028 406.04 31.354 399.575 31.4C390.744 31.4011 382.152 34.2668 375.089 39.5671C368.026 44.8673 362.872 52.3159 360.403 60.7944C357.934 69.2729 358.282 78.3236 361.394 86.5875C364.507 94.8515 370.217 101.883 377.666 106.625H386.496C380.862 103.886 376.336 99.2998 373.672 93.6302V93.6302Z" fill="#555555"/>
<path d="M396.6 113.425C396.6 115.228 397.316 116.958 398.592 118.233C399.867 119.509 401.596 120.225 403.4 120.225H423.8C425.603 120.225 427.333 120.941 428.608 122.217C429.883 123.492 430.6 125.222 430.6 127.025C430.6 128.828 429.883 130.558 428.608 131.833C427.333 133.109 425.603 133.825 423.8 133.825H389.8C387.996 133.825 386.267 133.109 384.992 131.833C383.716 130.558 383 128.828 383 127.025V113.425C383 111.622 383.716 109.892 384.992 108.617C386.267 107.341 387.996 106.625 389.8 106.625C391.603 106.625 393.333 107.341 394.608 108.617C395.884 109.892 396.6 111.622 396.6 113.425Z" fill="#242423"/>
<path d="M442.007 89.5868C429.784 89.4593 401.156 88.877 393.2 86.225C383 82.825 386.4 62.425 386.4 62.425H439.189C439.879 64.6527 440.417 66.9246 440.8 69.225C442.181 77.504 442.385 84.236 442.007 89.5868Z" fill="#DDB283"/>
<path d="M403.4 86.225C407.155 86.225 410.2 83.1805 410.2 79.425C410.2 75.6695 407.155 72.625 403.4 72.625C399.644 72.625 396.6 75.6695 396.6 79.425C396.6 83.1805 399.644 86.225 403.4 86.225Z" fill="#F78663"/>
<path d="M440.8 69.225C440.417 66.9246 439.879 64.6527 439.189 62.425H426.424C429.389 69.7839 430.826 80.7425 430.737 89.3904C435.106 89.498 439.04 89.5558 442.007 89.5868C442.385 84.236 442.181 77.504 440.8 69.225Z" fill="#4F4D4B"/>
<path d="M417 79.425C416.098 79.425 415.233 79.0668 414.596 78.4291C413.958 77.7915 413.6 76.9267 413.6 76.025V72.625C413.6 71.7232 413.958 70.8584 414.596 70.2208C415.233 69.5832 416.098 69.225 417 69.225C417.902 69.225 418.766 69.5832 419.404 70.2208C420.042 70.8584 420.4 71.7232 420.4 72.625V76.025C420.4 76.9267 420.042 77.7915 419.404 78.4291C418.766 79.0668 417.902 79.425 417 79.425Z" fill="#683B11"/>
<path d="M332 137.225C329.983 137.225 328.011 137.823 326.333 138.944C324.656 140.065 323.348 141.658 322.576 143.522C321.804 145.385 321.602 147.436 321.996 149.415C322.39 151.393 323.361 153.211 324.788 154.637C326.214 156.064 328.031 157.035 330.01 157.429C331.989 157.823 334.04 157.621 335.903 156.849C337.767 156.077 339.36 154.769 340.481 153.092C341.602 151.414 342.2 149.442 342.2 147.425C342.197 144.721 341.121 142.128 339.209 140.216C337.297 138.304 334.704 137.228 332 137.225ZM332 150.825C331.328 150.825 330.67 150.626 330.111 150.252C329.552 149.878 329.116 149.347 328.859 148.726C328.601 148.105 328.534 147.421 328.665 146.762C328.797 146.102 329.12 145.496 329.596 145.021C330.071 144.545 330.677 144.221 331.337 144.09C331.996 143.959 332.68 144.026 333.301 144.284C333.922 144.541 334.453 144.977 334.827 145.536C335.201 146.095 335.4 146.753 335.4 147.425C335.399 148.326 335.04 149.191 334.403 149.828C333.766 150.465 332.901 150.824 332 150.825V150.825Z" fill="black"/>
<path d="M451 136.8C448.983 136.8 447.01 137.398 445.333 138.519C443.656 139.64 442.348 141.233 441.576 143.097C440.804 144.96 440.602 147.011 440.996 148.99C441.389 150.968 442.361 152.786 443.787 154.212C445.214 155.639 447.031 156.61 449.01 157.004C450.989 157.397 453.039 157.195 454.903 156.423C456.767 155.651 458.36 154.344 459.481 152.667C460.602 150.989 461.2 149.017 461.2 147C461.197 144.296 460.121 141.703 458.209 139.791C456.297 137.879 453.704 136.803 451 136.8V136.8ZM451 150.4C450.327 150.4 449.67 150.201 449.111 149.827C448.552 149.453 448.116 148.922 447.859 148.301C447.601 147.68 447.534 146.996 447.665 146.337C447.796 145.677 448.12 145.071 448.596 144.596C449.071 144.12 449.677 143.796 450.337 143.665C450.996 143.534 451.68 143.601 452.301 143.859C452.922 144.116 453.453 144.552 453.827 145.111C454.201 145.67 454.4 146.327 454.4 147C454.399 147.901 454.04 148.766 453.403 149.403C452.766 150.04 451.901 150.399 451 150.4Z" fill="black"/>
<path d="M500.349 158.109L492.331 153.298C494.752 152.464 497.228 151.571 499.795 150.608C500.327 150.408 500.801 150.078 501.173 149.648C501.545 149.217 501.803 148.7 501.923 148.144C502.043 147.588 502.022 147.011 501.862 146.465C501.701 145.92 501.406 145.423 501.004 145.021C495.877 139.893 479.1 130.933 460.896 125.364C458.592 124.304 456.132 123.623 453.612 123.346C445.579 121.355 438.113 120.31 431.401 120.233C430.446 119.161 429.275 118.303 427.965 117.715C426.655 117.128 425.236 116.825 423.8 116.825H417.954L419.654 110.025H437.4C437.93 110.025 438.452 109.901 438.926 109.663C439.399 109.426 439.811 109.081 440.127 108.656C440.484 108.177 448.81 96.603 444.154 68.6661C442.312 57.6161 437.193 47.5181 429.739 40.2311C421.554 32.2296 411.123 28 399.575 28C390.009 28.001 380.701 31.1053 373.049 36.8469C365.397 42.5885 359.814 50.6574 357.139 59.8421C354.464 69.0267 354.84 78.8314 358.212 87.7839C361.583 96.7364 367.768 104.354 375.838 109.492C376.384 109.84 377.018 110.025 377.665 110.025H380.184C379.797 111.117 379.599 112.267 379.6 113.425V127.025C379.599 128.183 379.797 129.333 380.185 130.425H374.585C373.685 128.187 374.107 124.066 374.905 122.894C375.309 122.576 375.635 122.17 375.859 121.708C376.083 121.246 376.2 120.739 376.2 120.225V113.425C376.2 112.658 375.94 111.913 375.463 111.311C374.986 110.71 374.32 110.288 373.573 110.114C367.448 108.685 362.719 110.706 358.523 113.102C355.48 114.838 352.765 116.953 350.139 118.998C348.86 119.994 347.652 120.935 346.402 121.841C344.622 123.162 342.725 124.317 340.735 125.293C337.955 124.19 334.991 123.624 332 123.625V103.225C332 102.323 331.642 101.458 331.004 100.821C330.367 100.183 329.502 99.825 328.6 99.825H301.4C300.498 99.825 299.633 100.183 298.996 100.821C298.358 101.458 298 102.323 298 103.225V130.425C298 131.327 298.358 132.191 298.996 132.829C299.633 133.467 300.498 133.825 301.4 133.825H312.485C309.093 138.683 307.636 144.633 308.4 150.51C309.165 156.386 312.095 161.765 316.618 165.594C321.141 169.423 326.93 171.425 332.852 171.209C338.774 170.992 344.402 168.573 348.634 164.425H427.2C429.738 164.425 432.246 164.382 434.684 164.303C437.252 166.731 440.328 168.556 443.69 169.644C447.052 170.733 450.614 171.058 454.118 170.596C457.621 170.134 460.977 168.896 463.942 166.973C466.906 165.05 469.65 162.511 471.5 159.5V159.479L472.5 161L473 162L474 163.5L474.8 164.425H498.6C499.343 164.425 500.067 164.181 500.658 163.731C501.25 163.281 501.678 162.649 501.877 161.932C502.075 161.216 502.033 160.454 501.757 159.764C501.481 159.073 500.987 158.492 500.349 158.109ZM433.997 127.123C435.157 127.182 436.335 127.266 437.541 127.384C435.846 128.553 434.308 129.935 432.966 131.496C433.632 130.133 433.985 128.639 433.997 127.123ZM410.945 116.825H403.4C402.499 116.824 401.634 116.465 400.997 115.828C400.359 115.191 400.001 114.326 400 113.425C400 112.267 399.803 111.117 399.415 110.025H412.645L410.945 116.825ZM424.78 65.825C427.166 72.2948 428.344 79.1472 428.258 86.0422C415.829 85.7145 399.91 84.8777 394.275 82.9992C390.8 81.8415 389.692 76.8665 389.374 72.8974C389.204 70.5422 389.222 68.1773 389.428 65.825H424.78ZM431.975 65.825H436.61C436.94 67.1259 437.223 68.4455 437.446 69.7839C438.392 75.2092 438.827 80.7115 438.743 86.2182C437.633 86.2114 436.394 86.1986 435.056 86.1799C435.147 79.2723 434.106 72.3963 431.975 65.825ZM362.175 72.2C362.186 62.2843 366.13 52.778 373.142 45.7666C380.153 38.7552 389.659 34.8112 399.575 34.8C404.28 34.7535 408.948 35.6392 413.31 37.406C417.671 39.1727 421.639 41.7856 424.986 45.0939C428.994 49.0722 432.171 53.8077 434.333 59.025H386.4C385.595 59.025 384.816 59.3105 384.202 59.8308C383.588 60.351 383.179 61.0722 383.046 61.8661C382.649 64.2461 379.532 85.253 392.125 89.4507C401.227 92.4848 429.44 92.9438 438.216 93.0126C437.496 98.2125 436.229 101.531 435.42 103.225H378.683C373.591 99.8106 369.421 95.1928 366.541 89.7809C363.662 84.369 362.162 78.3303 362.175 72.2ZM386.4 127.025V113.425C386.4 112.523 386.758 111.658 387.396 111.021C388.033 110.383 388.898 110.025 389.8 110.025C390.702 110.025 391.566 110.383 392.204 111.021C392.842 111.658 393.2 112.523 393.2 113.425C393.203 116.129 394.279 118.722 396.191 120.634C398.103 122.546 400.696 123.622 403.4 123.625H413.589H413.602H413.622H423.8C424.702 123.625 425.566 123.983 426.204 124.621C426.842 125.258 427.2 126.123 427.2 127.025C427.2 127.927 426.842 128.791 426.204 129.429C425.566 130.067 424.702 130.425 423.8 130.425H389.8C388.899 130.424 388.034 130.065 387.397 129.428C386.76 128.791 386.401 127.926 386.4 127.025ZM304.8 106.625H325.2V124.62C323.291 125.189 321.462 125.997 319.756 127.025H304.8V106.625ZM315 147.425C315 144.063 315.997 140.776 317.865 137.98C319.733 135.185 322.388 133.006 325.494 131.719C328.601 130.432 332.019 130.096 335.317 130.752C338.614 131.408 341.643 133.027 344.021 135.404C346.398 137.782 348.017 140.811 348.673 144.108C349.329 147.406 348.993 150.824 347.706 153.931C346.419 157.037 344.24 159.692 341.445 161.56C338.649 163.428 335.362 164.425 332 164.425C327.493 164.42 323.172 162.627 319.985 159.44C316.798 156.253 315.005 151.932 315 147.425ZM372.8 157.625V150.825H413.6V157.625H372.8ZM420.4 157.625V147.425C420.4 146.523 420.042 145.658 419.404 145.021C418.766 144.383 417.902 144.025 417 144.025H369.4C368.498 144.025 367.633 144.383 366.996 145.021C366.358 145.658 366 146.523 366 147.425V157.625H353.499C355.745 152.901 356.369 147.568 355.274 142.454C354.179 137.339 351.426 132.729 347.444 129.338C348.401 128.739 349.38 128.08 350.391 127.347C351.737 126.372 353.049 125.35 354.318 124.362C356.868 122.378 359.273 120.503 361.893 119.007C364.626 117.447 366.898 116.471 369.4 116.437V118.91C367.932 120.993 367.487 123.922 367.356 125.302C367.15 127.467 367.033 132.867 370.396 136.228C370.711 136.544 371.086 136.795 371.499 136.966C371.911 137.137 372.353 137.225 372.8 137.225H423.8C426.406 137.226 428.913 136.226 430.803 134.431C428.65 137.877 427.419 141.818 427.227 145.877C427.034 149.936 427.888 153.976 429.705 157.61C428.874 157.62 428.039 157.625 427.2 157.625H420.4ZM451 164C446.491 164 442.167 162.209 438.979 159.021C435.791 155.833 434 151.509 434 147C434 142.491 435.791 138.167 438.979 134.979C442.167 131.791 446.491 130 451 130C451.489 130 451.971 130.025 452.45 130.066C454.393 130.555 456.418 131.116 458.479 131.738C461.929 133.428 464.704 136.236 466.353 139.705C468.002 143.174 468.428 147.1 467.56 150.841C466.693 154.583 464.583 157.921 461.576 160.31C458.569 162.7 454.841 164 451 164ZM472.47 136.736C480.418 140.009 487.159 143.539 491.574 146.362C489.212 147.192 486.912 147.961 484.641 148.684L483.5 149L482 149.5C481.148 149.692 480 150 480 150L477.516 150.822C476.458 151.122 475.397 151.413 474.332 151.696C475.35 146.639 474.696 141.389 472.47 136.736ZM481.153 157.625L482.476 155.64L482.484 155.627L482.631 155.408L486.325 157.625H481.153Z" fill="black"/>
<path d="M417 79.425C417.902 79.425 418.766 79.0668 419.404 78.4291C420.042 77.7915 420.4 76.9267 420.4 76.025V72.625C420.4 71.7232 420.042 70.8584 419.404 70.2208C418.766 69.5832 417.902 69.225 417 69.225C416.098 69.225 415.233 69.5832 414.596 70.2208C413.958 70.8584 413.6 71.7232 413.6 72.625V76.025C413.6 76.9267 413.958 77.7915 414.596 78.4291C415.233 79.0668 416.098 79.425 417 79.425Z" fill="black"/>
</svg>
